<svg width="291" height="85" viewBox="0 0 291 85" fill="none" xmlns="http://www.w3.org/2000/svg">
    <path
        d="M59.9418 27.7941L59.9406 53.0007L55.9865 53.0006L55.9859 31.3976L43.5585 31.3975L43.5582 53.0009L39.6032 53.0013L39.604 27.7938L59.9418 27.7941ZM75.0411 53.3525C74.3966 53.3523 73.7694 53.2763 73.1603 53.1239C72.5504 52.972 72.0295 52.7841 71.595 52.5615C71.1619 52.3273 70.7757 52.0927 70.4356 51.8581C70.1072 51.6127 69.8667 51.4186 69.7142 51.278L69.4688 51.0148L69.4687 60.5596L65.8646 60.5591L65.865 35.7218L69.4687 35.7213L69.4692 37.708C69.633 37.5438 69.8611 37.3275 70.1539 37.0577C70.4587 36.7879 71.0975 36.4361 72.0706 36.0032C73.0432 35.5694 74.0331 35.3528 75.0405 35.3523C77.3261 35.3525 79.3071 36.2317 80.9821 37.9893C82.6697 39.7357 83.5136 41.8564 83.5132 44.3528C83.5138 46.8488 82.6697 48.9752 80.9828 50.7336C79.3067 52.4794 77.3254 53.3523 75.0411 53.3525ZM78.3277 40.2922C77.2736 39.1667 76.0605 38.604 74.6897 38.6045C73.3184 38.604 72.1054 39.1665 71.0507 40.2917C69.9959 41.4169 69.4686 42.7764 69.469 44.3701C69.4685 45.9522 69.9956 47.3053 71.0505 48.4303C72.1055 49.5553 73.3186 50.1181 74.6894 50.1176C76.0607 50.118 77.2737 49.5556 78.3276 48.4308C79.3824 47.3055 79.9103 45.9523 79.9098 44.3707C79.9104 42.7766 79.3826 41.4172 78.3277 40.2922ZM100.055 35.7215L103.289 35.7216L103.289 53.0009L99.6852 53.0013L99.6855 41.6628L90.6851 53.0016L87.4508 53.0006L87.451 35.7223L91.0546 35.7218L91.054 47.0595L100.055 35.7215ZM110.32 35.7216L123.644 35.7218L123.644 53.001L120.04 53.0014L120.041 38.9557L113.924 38.956L113.924 40.7672C113.924 44.0594 113.66 46.6616 113.132 48.5715C112.617 50.4698 111.95 51.7415 111.128 52.3857C110.32 53.0304 109.272 53.3525 107.982 53.3525C107.666 53.3529 107.326 53.3233 106.963 53.265C106.611 53.2058 106.335 53.1419 106.137 53.0716L105.82 53.0008L105.821 49.5735C106.301 49.6909 106.716 49.7552 107.068 49.767C107.806 49.7668 108.387 49.5676 108.809 49.169C109.242 48.7708 109.599 47.8922 109.881 46.5321C110.173 45.1614 110.321 43.2395 110.32 40.7668L110.32 35.7216ZM140.413 48.4489C141.48 47.3358 142.014 45.9757 142.014 44.3708C142.013 42.7529 141.48 41.3884 140.414 40.275C139.348 39.1616 138.082 38.6053 136.617 38.6044C135.153 38.6044 133.881 39.1615 132.802 40.2746C131.737 41.3882 131.203 42.7528 131.203 44.3707C131.203 45.9756 131.736 47.3348 132.803 48.4481C133.881 49.5615 135.152 50.1188 136.617 50.1184C138.081 50.1184 139.348 49.5616 140.413 48.4489ZM130.289 50.6808C128.508 48.8878 127.617 46.785 127.617 44.37C127.618 41.9448 128.507 39.8349 130.289 38.0426C132.082 36.2494 134.191 35.3527 136.617 35.353C139.043 35.3533 141.147 36.2493 142.928 38.0423C144.72 39.8357 145.617 41.9446 145.617 44.3707C145.617 46.7844 144.72 48.8886 142.928 50.6805C141.146 52.4621 139.043 53.3527 136.617 53.3524C134.191 53.353 132.082 52.4617 130.289 50.6808ZM161.789 42.7356L168.451 35.7222L172.775 35.7226L166.113 42.9293L173.32 53.0014L169.347 53.0019L163.775 45.2668L161.789 47.4294L161.789 53.0014L158.203 53.0016L158.203 47.4296L156.217 45.2672L150.644 53.0014L146.671 53.0011L153.879 42.9296L147.217 35.7218L151.541 35.7222L158.203 42.7358L158.203 35.7223L161.789 35.7221L161.789 42.7356ZM192.2 45.6188L178.699 45.6186C178.887 46.8373 179.484 47.8919 180.492 48.7824C181.511 49.6733 182.719 50.119 184.113 50.119C185.121 50.1193 186.059 49.89 186.925 49.4329C187.804 48.9767 188.426 48.5307 188.789 48.0971L189.334 47.4289L191.672 49.7669C191.601 49.8613 191.49 49.9962 191.338 50.1716C191.197 50.3354 190.887 50.6229 190.406 51.0326C189.926 51.4313 189.416 51.7884 188.877 52.1047C188.338 52.4093 187.635 52.6969 186.768 52.9665C185.912 53.2244 185.027 53.3528 184.113 53.353C181.664 53.3531 179.549 52.4567 177.768 50.6637C175.998 48.8591 175.113 46.6965 175.113 44.1773C175.113 41.7511 175.974 39.6772 177.697 37.9543C179.431 36.2206 181.505 35.353 183.92 35.3529C186.345 35.3536 188.361 36.1621 189.967 37.7787C191.584 39.3846 192.392 41.3996 192.392 43.8258L192.2 45.6188ZM183.92 38.4289C182.619 38.4294 181.523 38.8159 180.633 39.589C179.754 40.3513 179.162 41.3418 178.857 42.5599L188.86 42.5602C188.648 41.3419 188.103 40.3515 187.225 39.589C186.345 38.8158 185.244 38.4297 183.92 38.4289ZM199.934 45.7944L199.933 53.0022L196.329 53.0017L196.33 35.722L199.933 35.7229L199.934 42.5605L208.388 42.5602L208.389 35.7222L211.992 35.7222L211.992 53.0014L208.388 53.0019L208.389 45.7951L199.934 45.7944ZM229.641 35.7224L232.875 35.7225L232.875 53.0017L229.271 53.0022L229.272 41.6636L220.271 53.0016L217.037 53.0015L217.037 35.7222L220.641 35.7227L220.64 47.0603L229.641 35.7224ZM243.685 35.7225L251.596 35.7228L251.596 53.002L248.01 53.0023L248.01 47.6057L244.23 47.6057L240.803 53.0018L236.848 53.0021L240.627 47.0606C240.533 47.0373 240.404 46.9844 240.24 46.902C240.088 46.8205 239.819 46.6383 239.431 46.3571C239.045 46.0643 238.699 45.7301 238.395 45.3554C238.102 44.9807 237.826 44.4648 237.568 43.8086C237.323 43.1404 237.199 42.4258 237.199 41.6641C237.199 39.9415 237.791 38.5232 238.974 37.4101C240.169 36.2849 241.74 35.7228 243.685 35.7225ZM248.01 38.781L243.685 38.781C242.865 38.7812 242.179 39.0565 241.629 39.6077C241.078 40.158 240.803 40.8433 240.803 41.6645C240.803 42.4845 241.078 43.17 241.628 43.7211C242.18 44.2717 242.865 44.5465 243.685 44.5472L248.009 44.5468L248.01 38.781Z"
        fill="white" />
    <path
        d="M271.001 1.00188L20.0005 1.00013C9.50714 1.00006 1.00049 9.50659 1.00042 20L1.00011 64C1.00004 74.4934 9.50657 83.0001 20 83.0001L271 83.0019C281.493 83.002 290 74.4954 290 64.002L290 20.002C290 9.5086 281.494 1.00195 271.001 1.00188Z"
        stroke="white" stroke-width="2" />
</svg>