<svg width="196" height="85" viewBox="0 0 196 85" fill="none" xmlns="http://www.w3.org/2000/svg">
    <path fill-rule="evenodd" clip-rule="evenodd"
        d="M41.3456 53.182L51.7871 53.1821C54.1182 53.1823 56.0526 52.4377 57.5871 50.95C59.123 49.4619 59.8903 47.6273 59.8903 45.4482C59.8906 43.2566 59.123 41.4165 57.5881 39.9285C56.0532 38.4405 54.1193 37.6959 51.7868 37.6961L45.3011 37.6952L45.3014 31.5784L57.9046 31.5787L57.905 27.9754L41.3459 27.9744L41.3456 53.182ZM51.7868 49.5783L45.3005 49.5784L45.3015 41.299L51.7872 41.2999C52.9591 41.2991 53.9375 41.6972 54.7231 42.4949C55.5196 43.2804 55.918 44.2642 55.9175 45.4481C55.9175 46.6195 55.5193 47.6037 54.7226 48.4015C53.937 49.1863 52.959 49.5789 51.7868 49.5783Z"
        fill="white" />
    <path
        d="M79.139 44.5522C79.1381 42.1264 78.2426 40.017 76.45 38.2238C74.6677 36.4309 72.5646 35.5342 70.1394 35.5342C69.2952 35.5345 68.4691 35.6637 67.6605 35.9205C66.8638 36.167 66.2126 36.4424 65.7092 36.7468C65.2052 37.0522 64.7312 37.3972 64.2848 37.7841C63.8397 38.1589 63.5471 38.4287 63.4061 38.5929C63.2773 38.7444 63.1777 38.868 63.1076 38.9613L65.4631 41.3001L65.9202 40.649C66.2597 40.2386 66.8171 39.829 67.5897 39.4185C68.3747 38.9969 69.2245 38.7863 70.1395 38.7861C70.8769 38.7856 71.5567 38.9323 72.1778 39.2255C72.8106 39.5069 73.2916 39.8232 73.6191 40.1753C73.9587 40.5149 74.2579 40.9131 74.5154 41.3703C74.7854 41.8278 74.9554 42.1499 75.0249 42.3372C75.1073 42.5123 75.1598 42.6477 75.1833 42.7417L67.432 42.741L67.4312 45.7996L75.3591 45.8L75.2186 46.2744C75.1366 46.5789 74.972 46.9544 74.7269 47.3996C74.4921 47.845 74.1935 48.2843 73.8299 48.7177C73.4789 49.1515 72.9804 49.5263 72.3363 49.8429C71.6911 50.1474 70.9593 50.2998 70.1385 50.2998C69.5638 50.2999 68.9956 50.2062 68.433 50.0184C67.8829 49.8194 67.4312 49.6029 67.0799 49.3679C66.7396 49.1219 66.4122 48.8464 66.0957 48.5425C65.7904 48.2255 65.5862 48.0087 65.48 47.8915C65.3864 47.7747 65.3162 47.6811 65.2696 47.6106L62.9311 49.9477L63.2658 50.2995C63.4529 50.5689 63.7631 50.8796 64.1964 51.2315C64.631 51.5714 65.1168 51.917 65.6559 52.2686C66.1949 52.6086 66.8628 52.9073 67.6603 53.1652C68.4686 53.4108 69.2943 53.5344 70.1385 53.5342C72.5637 53.5342 74.6678 52.6436 76.4494 50.8628C78.2418 49.0697 79.1384 46.9666 79.139 44.5522Z"
        fill="white" />
    <path
        d="M91.7251 43.1109L98.3867 35.9038L94.063 35.9045L86.6798 43.6381L86.6798 35.9038L83.0764 35.9033L83.0757 53.1824L86.679 53.183L86.6795 48.3316L89.3861 45.4489L94.9588 53.183L98.9141 53.1833L91.7251 43.1109Z"
        fill="white" />
    <path fill-rule="evenodd" clip-rule="evenodd"
        d="M103.554 45.8011L117.055 45.8013L117.247 44.0085C117.248 41.5824 116.439 39.5673 114.822 37.9611C113.217 36.3445 111.201 35.5355 108.776 35.5355C106.361 35.5358 104.287 36.4025 102.553 38.1368C100.83 39.8594 99.9691 41.9336 99.9686 44.3597C99.9688 46.8791 100.853 49.041 102.622 50.8461C104.404 52.6385 106.52 53.5356 108.968 53.5354C109.883 53.536 110.767 53.4064 111.623 53.1483C112.49 52.8793 113.193 52.5919 113.732 52.2876C114.271 51.9713 114.781 51.614 115.261 51.2155C115.742 50.8051 116.053 50.5182 116.193 50.3535C116.345 50.1785 116.457 50.0437 116.527 49.9503L114.189 47.6114L113.644 48.2793C113.282 48.7132 112.66 49.1591 111.781 49.616C110.914 50.0727 109.977 50.3015 108.968 50.301C107.574 50.3008 106.367 49.8558 105.348 48.9648C104.34 48.0741 103.743 47.0196 103.554 45.8011ZM105.488 39.7717C106.379 38.9978 107.475 38.612 108.775 38.6116C110.1 38.6115 111.201 38.9985 112.08 39.7722C112.959 40.5333 113.503 41.5241 113.715 42.7424L103.713 42.7427C104.018 41.5234 104.609 40.5338 105.488 39.7717Z"
        fill="white" />
    <path
        d="M124.789 53.1844L124.789 45.9773L133.244 45.9775L133.244 53.1846L136.847 53.1851L136.848 35.9059L133.244 35.9054L133.244 42.7431L124.789 42.743L124.789 35.9053L121.186 35.9048L121.185 53.1839L124.789 53.1844Z"
        fill="white" />
    <path fill-rule="evenodd" clip-rule="evenodd"
        d="M140.627 49.9509L139.379 49.9509L139.378 57.5094L142.982 57.5091L142.982 53.1844L155.041 53.1855L155.04 57.5097L158.627 57.5095L158.627 49.9505L156.113 49.9506L156.114 35.9059L143.51 35.905L143.51 40.9505C143.51 42.0986 143.404 43.1949 143.193 44.2374C142.994 45.2806 142.765 46.1246 142.508 46.7693C142.262 47.4018 141.969 47.993 141.628 48.5445C141.3 49.0951 141.066 49.4528 140.925 49.6161C140.797 49.769 140.696 49.8804 140.627 49.9509ZM147.113 40.951L147.113 39.1399L152.51 39.1406L152.509 49.951L144.231 49.9505L144.529 49.5816C144.717 49.371 144.951 49.0191 145.232 48.5267C145.526 48.0346 145.812 47.4547 146.094 46.7861C146.386 46.1066 146.627 45.2514 146.815 44.2208C147.014 43.1887 147.113 42.0991 147.113 40.951Z"
        fill="white" />
    <path fill-rule="evenodd" clip-rule="evenodd"
        d="M20.4496 0.3349C9.40389 0.3349 0.449585 9.28921 0.449585 20.3349V64.3349C0.449585 75.3806 9.40389 84.3349 20.4496 84.3349H175.45C186.495 84.3349 195.45 75.3806 195.45 64.3349V20.3349C195.45 9.28921 186.495 0.3349 175.45 0.3349H20.4496ZM2.44958 20.3349C2.44958 10.3938 10.5085 2.3349 20.4496 2.3349H175.45C185.391 2.3349 193.45 10.3938 193.45 20.3349V64.3349C193.45 74.276 185.391 82.3349 175.45 82.3349H20.4496C10.5085 82.3349 2.44958 74.276 2.44958 64.3349V20.3349Z"
        fill="white" />
</svg>