<svg width="260" height="262" viewBox="0 0 260 262" fill="none" xmlns="http://www.w3.org/2000/svg">
    <path
        d="M210 1.01831L50 1.01831C22.3858 1.01831 -2.47886e-07 23.4041 -5.5367e-07 51.0183L-2.32541e-06 211.018C-2.6312e-06 238.633 22.3858 261.018 50 261.018L210 261.018C237.614 261.018 260 238.633 260 211.018L260 51.0183C260 23.4041 237.614 1.01831 210 1.01831Z"
        fill="#FFD125" />
    <path
        d="M43.3156 58.4245C44.6336 59.7668 46.1889 60.4415 47.9816 60.4497C49.787 60.4583 51.3483 59.7917 52.6668 58.4506C53.9977 57.1088 54.6676 55.507 54.6761 53.6431L54.7464 38.5092L58.7194 38.5274L58.6493 53.6622C58.6353 56.5443 57.5868 59.0012 55.5029 61.0301C53.4314 63.0479 50.9184 64.0494 47.9655 64.0362C45.024 64.0226 42.5211 62.9913 40.4568 60.9423C38.403 58.8932 37.3834 56.4339 37.3965 53.5626L37.4678 38.4285L41.4407 38.4467L41.3694 53.5808C41.3604 55.4564 42.0096 57.0701 43.3156 58.4245ZM74.3223 47.4243L80.6569 38.63L85.3326 38.6519L76.6457 50.6698L85.9354 63.8612L81.26 63.8402L74.2924 53.9105L67.2151 63.7747L62.5394 63.7528L71.9523 50.6481L63.3773 38.5495L68.0531 38.5714L74.3223 47.4243ZM101.91 38.3772L90.962 71.4439L87.7106 71.4289L98.6759 38.362L101.91 38.3772ZM112.08 58.7457C113.398 60.088 114.954 60.7624 116.747 60.7707C118.552 60.7795 120.113 60.1129 121.432 58.7715C122.762 57.43 123.432 55.8282 123.441 53.9643L123.512 38.8301L127.484 38.8487L127.414 53.9834C127.4 56.8655 126.351 59.3224 124.268 61.3513C122.196 63.3691 119.683 64.3706 116.73 64.3574C113.789 64.3438 111.286 63.3125 109.221 61.2635C107.169 59.2142 106.149 56.7548 106.162 53.8835L106.232 38.7497L110.205 38.7679L110.134 53.902C110.126 55.7773 110.774 57.3913 112.08 58.7457ZM134.187 64.0867L134.304 38.88L138.259 38.8984L138.142 64.1051L134.187 64.0867ZM33.7683 100.384L35.0164 100.39C35.0871 100.32 35.187 100.209 35.3164 100.057C35.4577 99.8939 35.6938 99.5373 36.0248 98.9885C36.3672 98.4394 36.6626 97.8493 36.9116 97.2168C37.1728 96.5733 37.4049 95.7317 37.6091 94.6895C37.8247 93.6469 37.9353 92.5517 37.941 91.4039L37.9649 86.3584L50.5678 86.4173L50.5023 100.462L53.0155 100.474L52.9809 108.032L49.3944 108.016L49.4151 103.692L37.3566 103.635L37.3359 107.959L33.7327 107.943L33.7683 100.384ZM41.5532 89.6094L41.5442 91.4201C41.5388 92.5689 41.4347 93.6579 41.2301 94.6888C41.0379 95.719 40.7942 96.5736 40.4975 97.2519C40.2129 97.9183 39.9235 98.4972 39.6281 98.988C39.3451 99.4782 39.1082 99.8287 38.9204 100.039L38.6199 100.407L46.8991 100.446L46.9494 89.6348L41.5532 89.6094ZM69.3061 86.5046L72.5401 86.5207L72.4594 103.799L68.8559 103.782L68.9093 92.4441L59.8565 103.74L56.6218 103.726L56.7023 86.446L60.3057 86.4632L60.2533 97.8009L69.3061 86.5046ZM89.0779 91.0975C89.0737 91.8946 88.8484 92.5908 88.3999 93.186C87.9639 93.7815 87.5166 94.1723 87.0587 94.3573L86.3716 94.6887C86.4656 94.7122 86.5882 94.7542 86.7401 94.8134C86.9035 94.8722 87.1729 95.0147 87.5469 95.2391C87.9328 95.4516 88.2714 95.7109 88.5627 96.0171C88.866 96.3113 89.1391 96.7224 89.3834 97.2511C89.638 97.7797 89.7649 98.3725 89.7615 99.0282C89.7548 100.47 89.104 101.697 87.8108 102.71C86.5289 103.713 84.7742 104.209 82.5478 104.198C81.7036 104.194 80.8902 104.085 80.1061 103.87C79.3336 103.655 78.6899 103.4 78.1763 103.106C77.6615 102.81 77.2115 102.515 76.8266 102.22C76.4411 101.914 76.1556 101.654 75.9686 101.442L75.7239 101.107L78.0734 98.7806C78.2125 98.9451 78.4 99.1513 78.6324 99.3982C78.8773 99.6454 79.3918 99.9702 80.1747 100.373C80.9703 100.762 81.766 100.96 82.5627 100.963C83.7586 100.969 84.6558 100.75 85.2559 100.308C85.8671 99.8654 86.1742 99.3103 86.177 98.6423C86.1798 97.9743 85.8784 97.416 85.2709 96.9681C84.6751 96.5207 83.7805 96.2934 82.5846 96.2878L80.598 96.2781L80.612 93.3961L82.5983 93.4048C83.5358 93.4099 84.2517 93.2308 84.7447 92.8698C85.2393 92.4969 85.4878 92.0236 85.4901 91.4499C85.4928 90.8635 85.2491 90.3879 84.7588 90.0223C84.2681 89.6453 83.5542 89.4547 82.6167 89.4496C81.9256 89.4465 81.2444 89.5784 80.576 89.8445C79.918 90.1 79.4308 90.3671 79.1126 90.6464L78.6542 91.049L76.3099 88.6997C76.4747 88.5134 76.7159 88.2797 77.0338 87.9995C77.3511 87.7205 78.0561 87.3482 79.1482 86.8846C80.2404 86.421 81.4014 86.1926 82.6318 86.1981C84.6234 86.2072 86.1979 86.6952 87.3539 87.6614C88.509 88.6279 89.0839 89.7729 89.0779 91.0975ZM107.58 103.963L103.977 103.947L103.986 102.153C103.938 102.2 103.856 102.276 103.739 102.381C103.632 102.486 103.409 102.661 103.067 102.905C102.738 103.138 102.38 103.353 101.992 103.551C101.604 103.736 101.118 103.904 100.531 104.053C99.9444 104.203 99.352 104.277 98.7551 104.274C96.9969 104.266 95.5401 103.749 94.385 102.724C93.2298 101.699 92.6549 100.53 92.6606 99.2179C92.6673 97.7999 93.1187 96.6121 94.0132 95.6558C94.92 94.6988 96.1537 94.0958 97.7134 93.8448L104.029 92.7839C104.033 91.8707 103.697 91.1015 103.021 90.4769C102.355 89.8532 101.495 89.5378 100.441 89.5329C99.5269 89.529 98.694 89.7188 97.9419 90.1014C97.2022 90.4729 96.6908 90.852 96.4069 91.2368L95.9303 91.85L93.6031 89.5018C93.6737 89.408 93.7677 89.2914 93.8858 89.1508C94.0151 88.9993 94.2923 88.7431 94.7152 88.3817C95.1512 88.0089 95.609 87.6765 96.0911 87.3859C96.5732 87.0952 97.2075 86.8406 97.9937 86.6212C98.7913 86.3909 99.6118 86.2771 100.456 86.2814C102.565 86.2913 104.291 86.9264 105.632 88.1863C106.975 89.4344 107.641 90.9729 107.633 92.8011L107.58 103.963ZM99.3147 101.042C100.78 101.049 101.925 100.621 102.748 99.7571C103.585 98.8823 104.007 97.6354 104.014 96.0186L104.016 95.6668L98.4216 96.5374C97.7769 96.6519 97.2535 96.9133 96.8532 97.3212C96.4533 97.73 96.2519 98.2443 96.2483 98.8655C96.246 99.4393 96.5186 99.9446 97.0682 100.381C97.6283 100.817 98.3772 101.037 99.3147 101.042ZM125.31 86.7661L128.543 86.7813L128.463 104.061L124.859 104.044L124.912 92.7059L115.86 104.002L112.625 103.987L112.706 86.7076L116.309 86.7248L116.257 98.0625L125.31 86.7661ZM118.851 80.6188C119.33 81.1018 119.926 81.3451 120.642 81.3482C121.367 81.3521 121.972 81.1139 122.455 80.636C122.938 80.1578 123.18 79.5556 123.184 78.8287L125.891 78.8418C125.884 80.2828 125.387 81.4816 124.398 82.4374C123.409 83.3945 122.159 83.8687 120.647 83.8615C119.136 83.855 117.889 83.3683 116.91 82.4033C115.93 81.4377 115.443 80.2345 115.45 78.7925L118.14 78.8055C118.136 79.52 118.374 80.1248 118.851 80.6188ZM137.145 96.8943L137.112 104.101L133.508 104.084L133.589 86.8052L137.192 86.8224L137.16 93.6596L145.615 93.6993L145.647 86.8612L149.251 86.8784L149.17 104.157L145.567 104.141L145.6 96.9341L137.145 96.8943Z"
        fill="#15171E" />
    <path
        d="M200.419 218.741L178.401 188.238L215.765 188.662L210.928 197.757L226.323 206.59L219.638 217.942L205.256 209.646L200.419 218.741Z"
        fill="#15171E" />
    <path
        d="M183.001 178.369L189.448 166.244M174.315 177.64L170.293 164.484M167.286 182.328L156.171 176.418"
        stroke="#15171E" stroke-width="5" stroke-linecap="square" stroke-linejoin="round" />
    <path d="M167.334 190.776L153.405 195.035" stroke="#15171E" stroke-width="5"
        stroke-linecap="square" stroke-linejoin="round" />
    <path d="M172.018 197.805L165.571 209.931" stroke="#15171E" stroke-width="5"
        stroke-linecap="square" stroke-linejoin="round" />
</svg>