<svg width="245" height="85" viewBox="0 0 245 85" fill="none" xmlns="http://www.w3.org/2000/svg">
    <path
        d="M224.423 0.149292H20.4227C9.37699 0.149292 0.422688 9.1036 0.422688 20.1493V64.1493C0.422688 75.195 9.37699 84.1493 20.4227 84.1493H224.423C235.468 84.1493 244.423 75.195 244.423 64.1493V20.1493C244.423 9.1036 235.468 0.149292 224.423 0.149292Z"
        fill="#FD1F1F" />
    <path
        d="M62.4257 31.5217C64.5345 33.4677 65.5895 35.8697 65.5899 38.7293C65.5894 41.5768 64.5348 43.9733 62.4253 45.9183C60.3157 47.8634 57.5329 48.8831 54.076 48.977L54.0755 52.405L50.1203 52.4048L50.1208 48.9768C46.6634 48.8824 43.8744 47.8633 41.7535 45.9183C39.6442 43.9731 38.5896 41.576 38.5893 38.7281C38.5898 35.8689 39.6443 33.4666 41.7539 31.5215C43.875 29.5764 46.6637 28.5566 50.1215 28.4632L50.1209 25.7556L54.0761 25.7558L54.0759 28.463C57.5332 28.5574 60.3164 29.5765 62.4257 31.5217ZM59.6481 43.5978C60.9724 42.3681 61.6349 40.7446 61.6347 38.7291C61.6346 36.7135 60.9725 35.096 59.648 33.8772C58.336 32.6472 56.478 31.9845 54.0754 31.891L54.0752 45.5668C56.4778 45.4734 58.3357 44.8172 59.6481 43.5978ZM44.5314 33.8771C43.2181 35.096 42.5618 36.7127 42.562 38.7282C42.5622 40.7437 43.2184 42.3672 44.5305 43.5972C45.855 44.816 47.7178 45.4723 50.12 45.5666L50.1211 31.8912C47.7185 31.9847 45.8548 32.6468 44.5314 33.8771ZM78.8958 52.0364C78.2516 52.0361 77.6244 51.9599 77.0149 51.8083C76.4051 51.6553 75.8842 51.4676 75.4499 51.2452C75.017 51.0108 74.6302 50.7769 74.2906 50.5418C73.962 50.2958 73.7217 50.1029 73.5692 49.9619L73.3229 49.6983L73.3235 59.2428L69.7197 59.2431L69.7203 34.405L73.3236 34.4055L73.3235 36.3918C73.4878 36.2275 73.7166 36.0107 74.0092 35.7409C74.3144 35.4716 74.9524 35.1199 75.9257 34.6862C76.8984 34.2534 77.8881 34.036 78.8967 34.0364C81.1816 34.0361 83.1618 34.9148 84.838 36.673C86.5249 38.419 87.3682 40.5405 87.3682 43.0365C87.3682 45.5326 86.5246 47.66 84.8369 49.4173C83.1617 51.1634 81.1807 52.0361 78.8958 52.0364ZM82.1833 38.9757C81.1284 37.8509 79.9162 37.2881 78.5449 37.2885C77.174 37.2881 75.961 37.8509 74.9053 38.9756C73.8505 40.1007 73.3242 41.4597 73.3236 43.0533C73.3237 44.6358 73.8512 45.9894 74.906 47.1142C75.9604 48.2399 77.1731 48.8018 78.5439 48.8023C79.9152 48.8018 81.1283 48.239 82.1826 47.1147C83.2374 45.9896 83.7652 44.636 83.765 43.0536C83.7652 41.4608 83.2381 40.1005 82.1833 38.9757ZM103.031 47.1329C104.097 46.0193 104.63 44.6607 104.63 43.0549C104.63 41.438 104.097 40.0719 103.031 38.9588C101.965 37.8458 100.699 37.2887 99.2342 37.2885C97.7693 37.2883 96.4978 37.8457 95.4201 38.9585C94.3535 40.0721 93.82 41.4373 93.8196 43.0542C93.8199 44.66 94.3533 46.0194 95.4197 47.1325C96.4973 48.2463 97.7691 48.8025 99.2341 48.8027C100.698 48.8025 101.964 48.2465 103.031 47.1329ZM92.9052 49.3646C91.1243 47.5713 90.2341 45.4686 90.2338 43.0536C90.2338 40.6284 91.1246 38.5195 92.9058 36.7257C94.699 34.9331 96.8089 34.0366 99.2341 34.0366C101.66 34.0371 103.763 34.9337 105.545 36.7262C107.337 38.5194 108.234 40.6293 108.234 43.0546C108.233 45.469 107.337 47.5726 105.544 49.3652C103.763 51.1465 101.659 52.0371 99.2332 52.0366C96.808 52.0366 94.6986 51.1467 92.9052 49.3646ZM115.792 44.4786L115.792 51.6857L112.188 51.686L112.189 34.4069L115.793 34.4065L115.792 41.2442L124.247 41.2443L124.248 34.4067L127.851 34.4072L127.851 51.6863L124.247 51.6858L124.247 44.4787L115.792 44.4786ZM131.103 37.6415L131.103 34.4071L146.573 34.4074L146.572 37.6413L140.631 37.6416L140.63 51.6863L137.044 51.6865L137.045 37.6417L131.103 37.6415ZM165.819 44.3046L152.32 44.3041C152.507 45.5229 153.105 46.578 154.112 47.4681C155.132 48.3588 156.339 48.8046 157.734 48.804C158.741 48.8039 159.679 48.5757 160.547 48.119C161.425 47.6621 162.046 47.2165 162.409 46.7831L162.954 46.1153L165.292 48.4528C165.223 48.5467 165.111 48.6814 164.958 48.8574C164.817 49.0215 164.507 49.3089 164.026 49.7185C163.547 50.117 163.036 50.4743 162.498 50.7907C161.958 51.0957 161.255 51.3823 160.388 51.6522C159.533 51.9094 158.648 52.039 157.734 52.0384C155.284 52.0381 153.169 51.1424 151.388 49.3491C149.619 47.544 148.734 45.3821 148.734 42.8627C148.734 40.4374 149.596 38.3624 151.319 36.6399C153.053 34.9064 155.127 34.0388 157.54 34.0389C159.967 34.0385 161.982 34.8475 163.587 36.465C165.205 38.0704 166.013 40.0862 166.013 42.5114L165.819 44.3046ZM157.541 37.1146C156.24 37.1145 155.144 37.5017 154.254 38.2747C153.375 39.0368 152.783 40.0273 152.478 41.2452L162.48 41.2463C162.269 40.0271 161.724 39.0372 160.846 38.2752C159.967 37.5015 158.865 37.1154 157.541 37.1146ZM173.554 44.4804L173.554 51.6874L169.95 51.6878L169.951 34.4086L173.555 34.4083L173.554 41.246L182.009 41.2461L182.01 34.4084L185.613 34.4089L185.613 51.6881L182.009 51.6876L182.009 44.4805L173.554 44.4804ZM188.144 48.4534L189.392 48.4534C189.462 48.3834 189.562 48.2715 189.69 48.12C189.831 47.9558 190.066 47.5982 190.394 47.0476C190.734 46.4969 191.027 45.9048 191.273 45.2718C191.531 44.6276 191.759 43.7836 191.958 42.7412C192.17 41.6979 192.275 40.6024 192.275 39.4535L192.275 34.4089L204.879 34.4097L204.878 48.4545L207.392 48.4543L207.392 56.0134L203.806 56.0127L203.806 51.688L191.747 51.6883L191.747 56.0129L188.144 56.0124L188.144 48.4534ZM195.879 37.6429L195.879 39.454C195.878 40.6021 195.779 41.6926 195.579 42.7233C195.392 43.7552 195.151 44.6105 194.859 45.29C194.577 45.9577 194.291 46.5385 193.997 47.0297C193.716 47.5221 193.482 47.8739 193.294 48.0846L192.995 48.4539L201.275 48.454L201.275 37.6436L195.879 37.6429Z"
        fill="white" />
</svg>