<svg width="300" height="296" viewBox="0 0 300 296" fill="none" xmlns="http://www.w3.org/2000/svg">
    <path
        d="M178.286 5.30519C184.735 1.16419 193.348 3.47221 196.863 10.2832L205.546 27.1102C208.041 31.9442 213.281 34.7132 218.681 34.0512L237.475 31.7472C245.082 30.8142 251.841 36.6312 252.052 44.2922L252.575 63.2202C252.725 68.6572 256.245 73.4272 261.397 75.1732L279.33 81.2512C286.588 83.7122 290.154 91.8852 287.02 98.8782L279.279 116.159C277.055 121.123 278.157 126.947 282.041 130.756L295.56 144.013C301.032 149.379 300.699 158.29 294.841 163.232L280.369 175.442C276.211 178.949 274.677 184.675 276.524 189.792L282.952 207.602C285.554 214.811 281.388 222.694 273.966 224.605L255.629 229.327C250.361 230.683 246.494 235.176 245.938 240.587L244.003 259.423C243.219 267.047 236.045 272.342 228.529 270.843L209.959 267.141C204.624 266.077 199.191 268.448 196.343 273.082L186.426 289.213C182.412 295.741 173.651 297.399 167.529 292.788L152.405 281.395C148.06 278.122 142.137 277.901 137.559 280.84L121.626 291.07C115.177 295.211 106.564 292.903 103.049 286.093L94.366 269.266C91.871 264.432 86.631 261.662 81.232 262.324L62.437 264.629C54.83 265.561 48.071 259.745 47.86 252.084L47.337 233.156C47.187 227.718 43.667 222.949 38.515 221.203L20.582 215.124C13.324 212.664 9.75802 204.491 12.892 197.497L20.634 180.217C22.858 175.253 21.756 169.428 17.872 165.62L4.35202 152.362C-1.11998 146.997 -0.786982 138.086 5.07102 133.144L19.544 120.934C23.701 117.426 25.236 111.701 23.389 106.584L16.96 88.7742C14.358 81.5652 18.525 73.6812 25.946 71.7702L44.283 67.0492C49.551 65.6932 53.418 61.2002 53.974 55.7892L55.91 36.9522C56.693 29.3292 63.868 24.0342 71.383 25.5322L89.953 29.2352C95.288 30.2982 100.721 27.9282 103.57 23.2942L113.486 7.1632C117.5 0.634196 126.261 -1.0238 132.383 3.5882L147.507 14.9802C151.852 18.2532 157.775 18.4752 162.353 15.5362L178.286 5.30519Z"
        fill="#FFC6DD" />
    <path
        d="M69.1139 121.805L70.5069 122.178C70.6439 122.118 70.8319 122.005 71.0709 121.838C71.3239 121.663 71.7929 121.249 72.4779 120.596C73.1649 119.931 73.8159 119.177 74.4299 118.334C75.0549 117.495 75.7379 116.307 76.4769 114.77C77.2189 113.222 77.8329 111.542 78.3189 109.731L80.2749 102.43L96.0989 106.67L90.5079 127.538L93.4619 128.329L91.1329 137.023L87.2959 135.995L88.6919 130.782L72.0019 126.31L70.6049 131.522L66.7849 130.499L69.1139 121.805ZM82.1389 110.755C81.6539 112.566 81.0479 114.236 80.3229 115.764C79.6129 117.285 78.9219 118.482 78.2499 119.358C77.5789 120.234 76.9409 120.985 76.3359 121.611C75.7349 122.227 75.2459 122.648 74.8699 122.874L74.3269 123.202L86.6709 126.51L91.3289 109.123L83.1629 106.935L82.1389 110.755ZM103.284 116.803L116.154 120.251L111.682 136.942L108.202 136.009L111.837 122.443L105.928 120.86L105.459 122.609C104.607 125.789 103.679 128.234 102.675 129.943C101.686 131.643 100.711 132.698 99.7519 133.108C98.8039 133.522 97.7079 133.562 96.4629 133.228C96.1569 133.146 95.8369 133.03 95.5009 132.879C95.1759 132.732 94.9269 132.598 94.7529 132.479L94.4649 132.329L95.3529 129.018C95.7859 129.255 96.1709 129.425 96.5079 129.528C97.2209 129.719 97.8329 129.676 98.3439 129.401C98.8659 129.128 99.4379 128.372 100.062 127.131C100.7 125.883 101.339 124.064 101.979 121.676L103.284 116.803ZM126.597 123.049L134.237 125.097L129.765 141.787L126.301 140.859L127.698 135.647L124.048 134.668L119.34 138.994L115.52 137.97L120.708 133.209C120.623 133.163 120.512 133.078 120.375 132.957C120.249 132.838 120.036 132.593 119.735 132.221C119.437 131.838 119.19 131.426 118.993 130.985C118.807 130.547 118.674 129.977 118.595 129.277C118.53 128.568 118.596 127.845 118.794 127.11C119.239 125.446 120.178 124.229 121.609 123.46C123.055 122.683 124.718 122.546 126.597 123.049ZM129.982 127.123L125.805 126.004C125.013 125.792 124.279 125.88 123.605 126.27C122.93 126.659 122.487 127.25 122.274 128.042C122.062 128.835 122.151 129.568 122.54 130.243C122.929 130.917 123.52 131.361 124.313 131.573L128.49 132.692L129.982 127.123ZM66.4779 148.352L79.3479 151.8L74.8759 168.491L71.3949 167.558L75.0299 153.992L69.1219 152.409L68.6529 154.157C67.8009 157.338 66.8729 159.783 65.8689 161.491C64.8789 163.192 63.9049 164.247 62.9459 164.657C61.9979 165.071 60.9019 165.11 59.6569 164.777C59.3509 164.695 59.0299 164.579 58.6939 164.428C58.3699 164.28 58.1209 164.147 57.9469 164.027L57.6589 163.878L58.5459 160.567C58.9799 160.804 59.3649 160.974 59.7019 161.076C60.4149 161.268 61.0269 161.225 61.5369 160.95C62.0589 160.677 62.6319 159.92 63.2549 158.68C63.8929 157.432 64.5319 155.613 65.1719 153.225L66.4779 148.352ZM105.014 161.08C106.282 163.276 106.602 165.545 105.974 167.888C105.35 170.22 103.939 172.02 101.743 173.288C99.5619 174.547 97.2989 174.863 94.9559 174.235C92.7489 173.644 91.0409 172.41 89.8339 170.533C88.6259 168.657 88.1439 166.696 88.3889 164.65L85.0949 163.768L83.2299 170.729L79.7489 169.797L84.2209 153.106L87.7019 154.039L85.9319 160.644L89.2259 161.526C90.0909 159.793 91.5149 158.439 93.4989 157.466C95.4929 156.496 97.5319 156.291 99.6149 156.849C101.958 157.476 103.758 158.887 105.014 161.08ZM99.8929 170.481C101.211 169.681 102.078 168.506 102.494 166.956C102.912 165.394 102.751 163.937 102.009 162.586C101.267 161.234 100.188 160.369 98.7729 159.99C97.3579 159.611 95.9919 159.821 94.6739 160.62C93.3549 161.419 92.4869 162.6 92.0679 164.162C91.6529 165.713 91.8159 167.164 92.5579 168.515C93.2999 169.867 94.3779 170.732 95.7929 171.111C97.2079 171.49 98.5749 171.28 99.8929 170.481ZM105.97 173.474L107.175 173.797C107.262 173.747 107.387 173.666 107.551 173.552C107.729 173.43 108.048 173.145 108.507 172.698C108.978 172.254 109.414 171.758 109.816 171.211C110.232 170.655 110.671 169.899 111.133 168.943C111.607 167.99 111.992 166.959 112.289 165.85L113.595 160.977L125.769 164.239L122.134 177.805L124.562 178.456L122.606 185.757L119.142 184.829L120.261 180.652L108.614 177.531L107.494 181.708L104.014 180.775L105.97 173.474ZM116.239 165.034L115.77 166.782C115.473 167.892 115.095 168.919 114.635 169.863C114.187 170.811 113.734 171.575 113.275 172.156C112.83 172.728 112.403 173.214 111.993 173.614C111.593 174.016 111.276 174.295 111.04 174.45L110.656 174.73L118.653 176.872L121.451 166.43L116.239 165.034ZM144.602 179.531L131.562 176.036C131.427 177.262 131.732 178.436 132.475 179.557C133.229 180.681 134.279 181.423 135.626 181.784C136.6 182.045 137.565 182.067 138.521 181.85C139.488 181.636 140.203 181.367 140.666 181.042L141.365 180.538L143.018 183.401C142.926 183.473 142.784 183.575 142.591 183.705C142.413 183.827 142.039 184.024 141.468 184.296C140.901 184.557 140.316 184.77 139.714 184.936C139.114 185.091 138.361 185.186 137.453 185.222C136.56 185.25 135.672 185.145 134.789 184.909C132.424 184.275 130.612 182.861 129.356 180.668C128.114 178.467 127.819 176.15 128.471 173.716C129.099 171.373 130.468 169.592 132.577 168.374C134.702 167.148 136.929 166.847 139.261 167.472C141.604 168.1 143.342 169.402 144.474 171.38C145.621 173.349 145.88 175.506 145.252 177.849L144.602 179.531ZM138.465 170.443C137.209 170.107 136.05 170.196 134.99 170.713C133.944 171.221 133.116 172.025 132.506 173.123L142.167 175.712C142.279 174.48 142.009 173.382 141.357 172.419C140.708 171.445 139.744 170.786 138.465 170.443ZM163.327 174.302L166.451 175.14L161.979 191.83L158.498 190.897L161.433 179.946L149.805 188.568L146.681 187.731L151.153 171.04L154.634 171.973L151.699 182.925L163.327 174.302ZM158.645 166.715C158.985 167.303 159.5 167.69 160.19 167.875C160.892 168.063 161.537 167.987 162.126 167.648C162.714 167.308 163.102 166.787 163.291 166.085L165.905 166.786C165.532 168.178 164.746 169.211 163.546 169.884C162.347 170.558 161.017 170.699 159.557 170.308C158.097 169.916 157.015 169.129 156.313 167.946C155.611 166.763 155.447 165.476 155.82 164.083L158.417 164.779C158.232 165.47 158.308 166.115 158.645 166.715Z"
        fill="#15171E" />
    <path
        d="M209.425 102.049L208.4 127.902L233.106 120.22L214.1 137.776L237.002 149.814L211.149 148.789L218.831 173.495L201.275 154.49L189.237 177.392L190.263 151.539L165.556 159.22L184.562 141.665L161.66 129.627L187.513 130.652L179.831 105.945L197.387 124.951L209.425 102.049Z"
        fill="#FD1F1F" />
</svg>