<svg width="306" height="306" viewBox="0 0 306 306" fill="none" xmlns="http://www.w3.org/2000/svg">
    <path
        d="M284.846 77.0109C326.995 150.015 301.982 243.365 228.978 285.514C155.974 327.663 62.6236 302.65 20.4747 229.645C-21.6743 156.641 3.33879 63.2909 76.3429 21.1419C149.347 -21.0071 242.697 4.00595 284.846 77.0109Z"
        fill="#1D60FF" />
    <path
        d="M150.249 144.998C161.249 145.958 170.948 137.824 171.912 126.829C172.876 115.835 164.741 106.144 153.741 105.184C142.741 104.224 133.042 112.358 132.078 123.352C131.113 134.347 139.249 144.038 150.249 144.998Z"
        fill="white" />
    <path
        d="M174.709 152.147L164.828 140.377M171.912 126.829C170.948 137.824 161.249 145.958 150.249 144.998C139.249 144.038 131.113 134.347 132.078 123.352C133.042 112.358 142.741 104.224 153.741 105.184C164.741 106.144 172.876 115.835 171.912 126.829Z"
        stroke="white" stroke-width="5" stroke-linecap="square" stroke-linejoin="round" />
    <path
        d="M84.0137 200.397H80.0586V182.221L66.0137 200.397H62.6035V175.19H66.5586V193.383L80.6035 175.19H84.0137V200.397ZM91.5547 198.077C89.7734 196.284 88.8828 194.18 88.8828 191.766C88.8828 189.34 89.7734 187.231 91.5547 185.438C93.3477 183.645 95.457 182.749 97.8828 182.749C99.2305 182.749 100.484 183.042 101.645 183.628C102.805 184.202 103.637 184.776 104.141 185.35L104.896 186.176L102.559 188.514C102.441 188.327 102.26 188.098 102.014 187.829C101.779 187.547 101.258 187.172 100.449 186.704C99.6523 186.235 98.7969 186.001 97.8828 186.001C96.418 186.001 95.1465 186.557 94.0684 187.671C93.002 188.784 92.4688 190.149 92.4688 191.766C92.4688 193.372 93.002 194.731 94.0684 195.844C95.1465 196.958 96.418 197.514 97.8828 197.514C98.7969 197.514 99.6523 197.286 100.449 196.829C101.258 196.372 101.838 195.926 102.189 195.493L102.734 194.825L105.072 197.163C105.002 197.256 104.896 197.391 104.756 197.567C104.615 197.731 104.311 198.018 103.842 198.428C103.373 198.827 102.881 199.184 102.365 199.501C101.85 199.805 101.182 200.092 100.361 200.362C99.541 200.62 98.7148 200.749 97.8828 200.749C95.457 200.749 93.3477 199.858 91.5547 198.077ZM109.52 198.077C107.738 196.284 106.848 194.18 106.848 191.766C106.848 189.34 107.738 187.231 109.52 185.438C111.312 183.645 113.422 182.749 115.848 182.749C117.195 182.749 118.449 183.042 119.609 183.628C120.77 184.202 121.602 184.776 122.105 185.35L122.861 186.176L120.523 188.514C120.406 188.327 120.225 188.098 119.979 187.829C119.744 187.547 119.223 187.172 118.414 186.704C117.617 186.235 116.762 186.001 115.848 186.001C114.383 186.001 113.111 186.557 112.033 187.671C110.967 188.784 110.434 190.149 110.434 191.766C110.434 193.372 110.967 194.731 112.033 195.844C113.111 196.958 114.383 197.514 115.848 197.514C116.762 197.514 117.617 197.286 118.414 196.829C119.223 196.372 119.803 195.926 120.154 195.493L120.699 194.825L123.037 197.163C122.967 197.256 122.861 197.391 122.721 197.567C122.58 197.731 122.275 198.018 121.807 198.428C121.338 198.827 120.846 199.184 120.33 199.501C119.814 199.805 119.146 200.092 118.326 200.362C117.506 200.62 116.68 200.749 115.848 200.749C113.422 200.749 111.312 199.858 109.52 198.077ZM128.609 183.118H141.934V200.397H138.33V186.352H132.213V188.163C132.213 191.456 131.949 194.057 131.422 195.967C130.906 197.866 130.238 199.137 129.418 199.782C128.609 200.426 127.561 200.749 126.271 200.749C125.955 200.749 125.615 200.719 125.252 200.661C124.9 200.602 124.625 200.538 124.426 200.467L124.109 200.397V196.969C124.59 197.087 125.006 197.151 125.357 197.163C126.096 197.163 126.676 196.963 127.098 196.565C127.531 196.167 127.889 195.288 128.17 193.928C128.463 192.557 128.609 190.635 128.609 188.163V183.118ZM162.992 193.014H149.492C149.68 194.233 150.277 195.288 151.285 196.178C152.305 197.069 153.512 197.514 154.906 197.514C155.914 197.514 156.852 197.286 157.719 196.829C158.598 196.372 159.219 195.926 159.582 195.493L160.127 194.825L162.465 197.163C162.395 197.256 162.283 197.391 162.131 197.567C161.99 197.731 161.68 198.018 161.199 198.428C160.719 198.827 160.209 199.184 159.67 199.501C159.131 199.805 158.428 200.092 157.561 200.362C156.705 200.62 155.82 200.749 154.906 200.749C152.457 200.749 150.342 199.852 148.561 198.059C146.791 196.255 145.906 194.092 145.906 191.573C145.906 189.147 146.768 187.073 148.49 185.35C150.225 183.616 152.299 182.749 154.713 182.749C157.139 182.749 159.154 183.557 160.76 185.174C162.377 186.78 163.186 188.796 163.186 191.221L162.992 193.014ZM154.713 185.825C153.412 185.825 152.316 186.212 151.426 186.985C150.547 187.747 149.955 188.737 149.65 189.956H159.652C159.441 188.737 158.896 187.747 158.018 186.985C157.139 186.212 156.037 185.825 154.713 185.825ZM164.609 197.163H165.857C165.928 197.092 166.027 196.981 166.156 196.829C166.297 196.665 166.531 196.307 166.859 195.756C167.199 195.206 167.492 194.614 167.738 193.981C167.996 193.337 168.225 192.493 168.424 191.45C168.635 190.407 168.74 189.311 168.74 188.163V183.118H181.344V197.163H183.857V204.721H180.271V200.397H168.213V204.721H164.609V197.163ZM172.344 186.352V188.163C172.344 189.311 172.244 190.401 172.045 191.432C171.857 192.463 171.617 193.319 171.324 193.999C171.043 194.667 170.756 195.247 170.463 195.739C170.182 196.231 169.947 196.583 169.76 196.794L169.461 197.163H177.74V186.352H172.344ZM191.627 202.19L192.348 200.397L185.316 183.118H189.096L194.141 195.721L199.186 183.118H202.965L195.213 202.19C194.322 204.323 193.438 205.817 192.559 206.672C191.691 207.528 190.602 207.956 189.289 207.956C188.809 207.956 188.357 207.926 187.936 207.868C187.514 207.809 187.203 207.745 187.004 207.674L186.758 207.604V204.352C187.355 204.587 187.959 204.71 188.568 204.721C189.939 204.71 190.959 203.866 191.627 202.19ZM221.844 193.014H208.344C208.531 194.233 209.129 195.288 210.137 196.178C211.156 197.069 212.363 197.514 213.758 197.514C214.766 197.514 215.703 197.286 216.57 196.829C217.449 196.372 218.07 195.926 218.434 195.493L218.979 194.825L221.316 197.163C221.246 197.256 221.135 197.391 220.982 197.567C220.842 197.731 220.531 198.018 220.051 198.428C219.57 198.827 219.061 199.184 218.521 199.501C217.982 199.805 217.279 200.092 216.412 200.362C215.557 200.62 214.672 200.749 213.758 200.749C211.309 200.749 209.193 199.852 207.412 198.059C205.643 196.255 204.758 194.092 204.758 191.573C204.758 189.147 205.619 187.073 207.342 185.35C209.076 183.616 211.15 182.749 213.564 182.749C215.99 182.749 218.006 183.557 219.611 185.174C221.229 186.78 222.037 188.796 222.037 191.221L221.844 193.014ZM213.564 185.825C212.264 185.825 211.168 186.212 210.277 186.985C209.398 187.747 208.807 188.737 208.502 189.956H218.504C218.293 188.737 217.748 187.747 216.869 186.985C215.99 186.212 214.889 185.825 213.564 185.825ZM235.15 190.676L241.461 183.118H244.344V200.397H240.74V189.059L235.15 195.721L229.578 189.059V200.397H225.975V183.118H228.857L235.15 190.676Z"
        fill="white" />
</svg>