<svg xmlns="http://www.w3.org/2000/svg" width="200" height="160" viewBox="0 0 200 160" fill="none">
    <path fill-rule="evenodd" clip-rule="evenodd"
        d="M140.718 17.7221C175.569 27.5792 200 49.44 200 73.7599C200 96.8858 177.91 116.109 145.773 125.572L152.156 144.008C154.332 150.295 151.003 157.156 144.718 159.334C138.432 161.51 131.575 158.179 129.396 151.893L121.99 130.502C121.631 130.548 121.272 130.594 120.912 130.637L123.131 145.546C124.112 152.127 119.572 158.255 112.995 159.235C106.415 160.215 100.288 155.675 99.3098 149.095L96.7457 131.872C96.1346 131.861 95.5256 131.847 94.9166 131.829C93.3574 131.784 91.8084 131.717 90.2676 131.628L85.8663 148.541C84.1914 154.98 77.6138 158.84 71.1783 157.164C64.7407 155.487 60.8835 148.909 62.5584 142.47L66.2227 128.388L65.9548 128.329L56.1696 148.567C53.2726 154.555 46.0697 157.062 40.0828 154.164C34.096 151.268 31.5908 144.064 34.4878 138.075L42.7301 121.035C16.9008 110.11 0 92.0049 0 71.6733C0 48.0175 22.8755 27.7569 56.0762 18.1455C66.2735 6.95624 81.6131 0 97.6044 0C113.931 0 130.097 6.63234 140.718 17.7221Z"
        fill="#1D60FF" />
    <path fill-rule="evenodd" clip-rule="evenodd"
        d="M139.77 61.9239C139.985 39.7789 124.77 20.4905 100.945 18.3663C77.5353 16.2791 60.521 36.0471 58.8804 59.2416C59.9156 61.7762 63.1672 64.8424 69.4394 67.5613C75.6837 70.2681 83.909 72.173 92.8208 72.8972C101.711 73.6196 111.038 73.1464 119.44 71.2786C127.758 69.4294 134.835 66.2905 139.77 61.9239ZM53.8742 60.6941C60.4589 79.4332 120.153 86.6881 143.488 65.5721C144.426 64.7239 144.945 63.5179 144.964 62.2538C145.118 51.9265 142.231 42.081 136.856 33.9431C149.701 37.3879 160.343 42.4724 167.98 48.5922C176.731 55.6043 181.346 63.7957 181.247 72.379C181.119 83.4504 172.62 93.9681 157.667 101.795C142.822 109.567 122.203 114.321 99.3506 114.056C76.4977 113.792 55.9949 108.563 41.3329 100.45C26.5654 92.2795 18.3114 81.5681 18.4393 70.4967C18.5397 61.808 23.1042 53.666 31.7154 46.8505C39.1477 40.968 49.5021 36.1651 62.2122 33.0342C57.2987 40.6287 54.3086 49.7186 53.6813 59.091C53.6449 59.6348 53.6936 60.18 53.8742 60.6941ZM132.18 27.4578L132.088 27.8771C124.58 19.8032 114.087 14.3187 101.407 13.1882C87.3231 11.9325 75.5133 17.4907 67.1499 26.6267C51.1503 29.7423 37.8764 35.345 28.4906 42.7736C19.0028 50.2829 13.3657 59.7796 13.2425 70.4366C13.0819 84.3383 23.3712 96.4531 38.8174 104.999C44.5659 108.18 51.1111 110.92 58.2673 113.124L57.9011 113.874C56.0892 117.582 53.3296 123.209 50.9398 128.036C49.7445 130.45 48.6441 132.659 47.8019 134.326C47.3804 135.161 47.027 135.852 46.7604 136.364C46.4911 136.88 46.3649 137.105 46.344 137.142C46.3417 137.146 46.3408 137.148 46.3408 137.148L44.9197 139.324L49.2707 142.167L50.6919 139.991C50.9621 139.577 51.642 138.251 52.4405 136.671C53.2921 134.985 54.3997 132.761 55.597 130.343C57.9922 125.505 60.7562 119.87 62.5705 116.156L63.3451 114.571C68.3108 115.874 73.5302 116.928 78.9481 117.705L72.4242 142.519L77.4505 143.842L84.1502 118.358C89.0672 118.89 94.127 119.195 99.2905 119.255C100.879 119.273 102.458 119.268 104.027 119.24L108.193 145.247L113.325 144.424L109.261 119.06C115.344 118.75 121.245 118.094 126.894 117.125L136.627 146.368L141.558 144.726L132.044 116.141C142.553 113.923 152.061 110.598 160.077 106.401C175.716 98.2145 186.283 86.3408 186.444 72.4391C186.567 61.7662 180.787 52.1938 171.23 44.5349C161.678 36.8808 148.163 30.9586 132.18 27.4578Z"
        fill="white" />
</svg>